<svg width="76" height="29" viewBox="0 0 76 29" fill="none" xmlns="http://www.w3.org/2000/svg">
<path d="M3.86348 10.18C2.64748 10.18 1.71148 9.808 1.05548 9.064C0.399484 8.32 0.0714844 7.268 0.0714844 5.908C0.0714844 5.044 0.227484 4.3 0.539484 3.676C0.859484 3.044 1.31948 2.564 1.91948 2.236C2.51948 1.9 3.23148 1.732 4.05548 1.732C4.99148 1.732 5.95548 1.944 6.94748 2.368C6.87548 3.088 6.75948 3.884 6.59948 4.756L5.68748 4.816L4.85948 3.604C4.50748 3.5 4.11948 3.448 3.69548 3.448C3.37548 3.448 3.07148 3.476 2.78348 3.532C2.65548 3.78 2.55148 4.108 2.47148 4.516C2.39148 4.924 2.35148 5.336 2.35148 5.752C2.35148 6.64 2.51148 7.3 2.83148 7.732C3.15948 8.156 3.67548 8.376 4.37948 8.392C4.65948 8.392 5.01148 8.352 5.43548 8.272C5.86748 8.184 6.28748 8.072 6.69548 7.936L7.06748 9.256C6.65148 9.528 6.14748 9.752 5.55548 9.928C4.97148 10.096 4.40748 10.18 3.86348 10.18ZM7.61864 8.86L8.36264 8.644V2.896C8.36264 2.72 8.35064 2.608 8.32664 2.56C8.30264 2.504 8.23864 2.444 8.13464 2.38L7.60664 2.104L7.64264 1.192L8.01464 1.132C9.07064 0.94 9.81064 0.836 10.2346 0.819999C10.3066 1.012 10.3586 1.22 10.3906 1.444V4.18C10.8306 3.98 11.2026 3.836 11.5066 3.748C11.8186 3.652 12.1266 3.604 12.4306 3.604C13.6786 3.604 14.3026 4.364 14.3026 5.884V8.248C14.3026 8.416 14.3146 8.528 14.3386 8.584C14.3626 8.64 14.4306 8.7 14.5426 8.764L15.1186 9.1L15.0706 10H11.7586L11.6986 8.86L12.2866 8.692V6.412C12.2866 6.06 12.2746 5.812 12.2506 5.668C12.2346 5.516 12.1706 5.4 12.0586 5.32C11.9466 5.24 11.7586 5.2 11.4946 5.2C11.2386 5.2 10.8706 5.244 10.3906 5.332V8.248C10.3906 8.416 10.4026 8.528 10.4266 8.584C10.4506 8.64 10.5146 8.7 10.6186 8.764L11.2066 9.1L11.1586 10H7.67864L7.61864 8.86ZM17.2685 10.156C16.7245 10.156 16.2885 10.008 15.9605 9.712C15.6325 9.408 15.4685 9.02 15.4685 8.548C15.4685 7.916 15.7845 7.42 16.4165 7.06C17.0565 6.7 17.9845 6.496 19.2005 6.448C19.2005 6.072 19.1685 5.796 19.1045 5.62C19.0485 5.436 18.9405 5.312 18.7805 5.248C18.6285 5.176 18.3925 5.14 18.0725 5.14C17.7445 5.14 17.5125 5.152 17.3765 5.176L16.8845 6.148L15.9965 6.088C15.8605 5.448 15.7645 4.784 15.7085 4.096C16.1565 3.944 16.6445 3.824 17.1725 3.736C17.7085 3.648 18.2085 3.604 18.6725 3.604C19.5205 3.604 20.1285 3.772 20.4965 4.108C20.8645 4.436 21.0485 4.984 21.0485 5.752V8.26C21.0485 8.404 21.0605 8.504 21.0845 8.56C21.1165 8.616 21.1805 8.672 21.2765 8.728L21.7565 9.004L21.7085 9.748C20.7805 9.964 20.0485 10.084 19.5125 10.108C19.4965 10.06 19.4725 9.976 19.4405 9.856C19.4085 9.728 19.3805 9.608 19.3565 9.496C19.0445 9.696 18.7005 9.856 18.3245 9.976C17.9565 10.096 17.6045 10.156 17.2685 10.156ZM18.0725 8.8C18.3925 8.8 18.7805 8.692 19.2365 8.476L19.1885 7.564C18.9965 7.548 18.8685 7.54 18.8045 7.54C18.5885 7.54 18.3365 7.564 18.0485 7.612C17.7605 7.652 17.5325 7.7 17.3645 7.756C17.3405 7.86 17.3285 7.956 17.3285 8.044C17.3285 8.284 17.3925 8.472 17.5205 8.608C17.6565 8.736 17.8405 8.8 18.0725 8.8ZM22.197 8.86L22.929 8.644V5.728C22.929 5.552 22.917 5.44 22.893 5.392C22.869 5.336 22.805 5.276 22.701 5.212L22.173 4.924L22.209 4.024C22.345 3.992 22.461 3.972 22.557 3.964C23.525 3.764 24.241 3.656 24.705 3.64C24.777 3.848 24.845 4.108 24.909 4.42C25.389 4.044 25.797 3.784 26.133 3.64H26.817C26.809 3.944 26.789 4.276 26.757 4.636C26.725 4.988 26.685 5.272 26.637 5.488C26.349 5.472 26.137 5.464 26.001 5.464C25.665 5.464 25.317 5.484 24.957 5.524V8.248C24.957 8.416 24.969 8.528 24.993 8.584C25.017 8.64 25.081 8.7 25.185 8.764L25.905 9.148L25.857 10H22.257L22.197 8.86ZM27.048 8.896L27.888 8.644V2.896C27.888 2.72 27.872 2.608 27.84 2.56C27.816 2.504 27.748 2.444 27.636 2.38L27.108 2.104L27.168 1.192C27.328 1.16 27.452 1.14 27.54 1.132C28.596 0.94 29.332 0.836 29.748 0.819999C29.828 1.004 29.88 1.212 29.904 1.444V8.248C29.904 8.416 29.916 8.528 29.94 8.584C29.964 8.64 30.032 8.7 30.144 8.764L30.732 9.1L30.684 10H27.084L27.048 8.896ZM31.6536 1.12L33.6936 0.58L34.1856 2.404L32.1576 2.956L31.6536 1.12ZM31.1496 8.896L31.9896 8.644V5.728C31.9896 5.552 31.9736 5.44 31.9416 5.392C31.9176 5.336 31.8496 5.276 31.7376 5.212L31.2096 4.924L31.2696 4.024C31.9336 3.896 32.4456 3.804 32.8056 3.748C33.1736 3.684 33.5096 3.648 33.8136 3.64C33.9176 3.984 33.9816 4.24 34.0056 4.408V8.248C34.0056 8.416 34.0176 8.528 34.0416 8.584C34.0656 8.64 34.1336 8.7 34.2456 8.764L34.8336 9.1L34.7856 10H31.1856L31.1496 8.896ZM38.1178 10.144C37.1818 10.144 36.4578 9.86 35.9458 9.292C35.4418 8.724 35.1898 7.94 35.1898 6.94C35.1898 6.244 35.3138 5.648 35.5618 5.152C35.8098 4.648 36.1618 4.264 36.6178 4C37.0738 3.736 37.6058 3.604 38.2138 3.604C39.1178 3.604 39.8098 3.892 40.2898 4.468C40.7778 5.044 41.0098 5.864 40.9858 6.928L37.3378 7.6C37.4498 7.936 37.6058 8.184 37.8058 8.344C38.0138 8.496 38.2858 8.572 38.6218 8.572C38.8538 8.572 39.1298 8.54 39.4498 8.476C39.7698 8.404 40.0938 8.308 40.4218 8.188L40.6978 9.376C40.4018 9.6 40.0178 9.784 39.5458 9.928C39.0738 10.072 38.5978 10.144 38.1178 10.144ZM39.0178 5.92C39.0018 5.616 38.9138 5.396 38.7538 5.26C38.6018 5.116 38.3858 5.044 38.1058 5.044C37.8738 5.044 37.6538 5.076 37.4458 5.14C37.2778 5.532 37.2018 5.956 37.2178 6.412L39.0178 5.92ZM45.5347 8.824L46.5787 8.536V3.34L45.5707 3.424L44.6827 4.492L43.8067 4.42C43.8067 3.756 43.8387 2.92 43.9027 1.912H51.4147C51.4787 2.92 51.5107 3.756 51.5107 4.42L50.6467 4.492L49.7467 3.424L48.7627 3.34V8.056C48.7627 8.248 48.7747 8.372 48.7987 8.428C48.8227 8.484 48.8907 8.54 49.0027 8.596L49.7467 9.04L49.6987 10H45.5947L45.5347 8.824ZM54.3951 10.144C53.4591 10.144 52.7351 9.86 52.2231 9.292C51.7191 8.724 51.4671 7.94 51.4671 6.94C51.4671 6.244 51.5911 5.648 51.8391 5.152C52.0871 4.648 52.4391 4.264 52.8951 4C53.3511 3.736 53.8831 3.604 54.4911 3.604C55.3951 3.604 56.0871 3.892 56.5671 4.468C57.0551 5.044 57.2871 5.864 57.2631 6.928L53.6151 7.6C53.7271 7.936 53.8831 8.184 54.0831 8.344C54.2911 8.496 54.5631 8.572 54.8991 8.572C55.1311 8.572 55.4071 8.54 55.7271 8.476C56.0471 8.404 56.3711 8.308 56.6991 8.188L56.9751 9.376C56.6791 9.6 56.2951 9.784 55.8231 9.928C55.3511 10.072 54.8751 10.144 54.3951 10.144ZM55.2951 5.92C55.2791 5.616 55.1911 5.396 55.0311 5.26C54.8791 5.116 54.6631 5.044 54.3831 5.044C54.1511 5.044 53.9311 5.076 53.7231 5.14C53.5551 5.532 53.4791 5.956 53.4951 6.412L55.2951 5.92ZM59.5849 10.156C59.0409 10.156 58.6049 10.008 58.2769 9.712C57.9489 9.408 57.7849 9.02 57.7849 8.548C57.7849 7.916 58.1009 7.42 58.7329 7.06C59.3729 6.7 60.3009 6.496 61.5169 6.448C61.5169 6.072 61.4849 5.796 61.4209 5.62C61.3649 5.436 61.2569 5.312 61.0969 5.248C60.9449 5.176 60.7089 5.14 60.3889 5.14C60.0609 5.14 59.8289 5.152 59.6929 5.176L59.2009 6.148L58.3129 6.088C58.1769 5.448 58.0809 4.784 58.0249 4.096C58.4729 3.944 58.9609 3.824 59.4889 3.736C60.0249 3.648 60.5249 3.604 60.9889 3.604C61.8369 3.604 62.4449 3.772 62.8129 4.108C63.1809 4.436 63.3649 4.984 63.3649 5.752V8.26C63.3649 8.404 63.3769 8.504 63.4009 8.56C63.4329 8.616 63.4969 8.672 63.5929 8.728L64.0729 9.004L64.0249 9.748C63.0969 9.964 62.3649 10.084 61.8289 10.108C61.8129 10.06 61.7889 9.976 61.7569 9.856C61.7249 9.728 61.6969 9.608 61.6729 9.496C61.3609 9.696 61.0169 9.856 60.6409 9.976C60.2729 10.096 59.9209 10.156 59.5849 10.156ZM60.3889 8.8C60.7089 8.8 61.0969 8.692 61.5529 8.476L61.5049 7.564C61.3129 7.548 61.1849 7.54 61.1209 7.54C60.9049 7.54 60.6529 7.564 60.3649 7.612C60.0769 7.652 59.8489 7.7 59.6809 7.756C59.6569 7.86 59.6449 7.956 59.6449 8.044C59.6449 8.284 59.7089 8.472 59.8369 8.608C59.9729 8.736 60.1569 8.8 60.3889 8.8ZM64.5015 8.86L65.2455 8.644V5.728C65.2455 5.552 65.2335 5.44 65.2095 5.392C65.1855 5.336 65.1215 5.276 65.0175 5.212L64.4895 4.924L64.5255 4.024L64.8495 3.964C65.8335 3.764 66.5615 3.656 67.0335 3.64C67.0975 3.808 67.1495 3.98 67.1895 4.156C67.6215 3.956 67.9895 3.816 68.2935 3.736C68.6055 3.648 68.8895 3.604 69.1455 3.604C69.4575 3.604 69.7495 3.664 70.0215 3.784C70.2935 3.896 70.4975 4.048 70.6335 4.24C71.0895 4.016 71.4975 3.856 71.8575 3.76C72.2255 3.656 72.5735 3.604 72.9015 3.604C73.5575 3.604 74.0415 3.792 74.3535 4.168C74.6655 4.544 74.8215 5.116 74.8215 5.884V8.248C74.8215 8.416 74.8335 8.528 74.8575 8.584C74.8815 8.64 74.9495 8.7 75.0615 8.764L75.6375 9.1L75.5895 10H72.3255L72.2655 8.86L72.8415 8.692V6.424C72.8415 6.08 72.8295 5.836 72.8055 5.692C72.7895 5.54 72.7255 5.424 72.6135 5.344C72.5015 5.256 72.3135 5.212 72.0495 5.212C71.8415 5.212 71.4935 5.248 71.0055 5.32C71.0215 5.448 71.0295 5.636 71.0295 5.884V8.248C71.0295 8.416 71.0415 8.528 71.0655 8.584C71.0895 8.64 71.1615 8.7 71.2815 8.764L71.8695 9.1L71.8215 10H68.5335L68.4735 8.86L69.0495 8.692V6.424C69.0495 6.072 69.0375 5.824 69.0135 5.68C68.9975 5.528 68.9335 5.412 68.8215 5.332C68.7095 5.252 68.5255 5.212 68.2695 5.212C67.9895 5.212 67.6495 5.248 67.2495 5.32V8.248C67.2495 8.416 67.2615 8.528 67.2855 8.584C67.3095 8.64 67.3735 8.7 67.4775 8.764L68.0655 9.1L68.0175 10H64.5615L64.5015 8.86ZM13.6135 26.18C12.3975 26.18 11.4615 25.808 10.8055 25.064C10.1495 24.32 9.82148 23.268 9.82148 21.908C9.82148 21.044 9.97748 20.3 10.2895 19.676C10.6095 19.044 11.0695 18.564 11.6695 18.236C12.2695 17.9 12.9815 17.732 13.8055 17.732C14.7415 17.732 15.7055 17.944 16.6975 18.368C16.6255 19.088 16.5095 19.884 16.3495 20.756L15.4375 20.816L14.6095 19.604C14.2575 19.5 13.8695 19.448 13.4455 19.448C13.1255 19.448 12.8215 19.476 12.5335 19.532C12.4055 19.78 12.3015 20.108 12.2215 20.516C12.1415 20.924 12.1015 21.336 12.1015 21.752C12.1015 22.64 12.2615 23.3 12.5815 23.732C12.9095 24.156 13.4255 24.376 14.1295 24.392C14.4095 24.392 14.7615 24.352 15.1855 24.272C15.6175 24.184 16.0375 24.072 16.4455 23.936L16.8175 25.256C16.4015 25.528 15.8975 25.752 15.3055 25.928C14.7215 26.096 14.1575 26.18 13.6135 26.18ZM20.4364 26.156C19.4204 26.156 18.6604 25.896 18.1564 25.376C17.6604 24.856 17.4124 24.06 17.4124 22.988C17.4124 22.3 17.5364 21.7 17.7844 21.188C18.0404 20.676 18.4044 20.284 18.8764 20.012C19.3484 19.74 19.9044 19.604 20.5444 19.604C22.6164 19.604 23.6524 20.676 23.6524 22.82C23.6524 23.868 23.3684 24.688 22.8004 25.28C22.2404 25.864 21.4524 26.156 20.4364 26.156ZM20.6284 24.752C20.7884 24.752 20.9284 24.74 21.0484 24.716C21.1684 24.684 21.2964 24.636 21.4324 24.572C21.4804 24.388 21.5204 24.152 21.5524 23.864C21.5844 23.576 21.6004 23.3 21.6004 23.036C21.6004 22.388 21.4964 21.896 21.2884 21.56C21.0884 21.224 20.7884 21.056 20.3884 21.056C20.1244 21.056 19.8564 21.092 19.5844 21.164C19.5284 21.284 19.4844 21.48 19.4524 21.752C19.4204 22.016 19.4044 22.32 19.4044 22.664C19.4044 23.336 19.5084 23.852 19.7164 24.212C19.9324 24.572 20.2364 24.752 20.6284 24.752ZM24.2358 24.848L24.9798 24.632V21.728C24.9798 21.552 24.9678 21.44 24.9438 21.392C24.9198 21.336 24.8558 21.276 24.7518 21.212L24.2238 20.924L24.2598 20.024L24.5238 19.976C25.5718 19.768 26.3278 19.656 26.7918 19.64C26.8558 19.808 26.9078 19.992 26.9478 20.192C27.4358 19.968 27.8318 19.816 28.1358 19.736C28.4478 19.648 28.7398 19.604 29.0118 19.604C30.2838 19.604 30.9198 20.364 30.9198 21.884V24.236C30.9198 24.404 30.9318 24.516 30.9558 24.572C30.9798 24.628 31.0478 24.688 31.1598 24.752L31.7358 25.088L31.6878 25.988H28.3758L28.3158 24.848L28.9038 24.68V22.412C28.9038 22.052 28.8918 21.8 28.8678 21.656C28.8438 21.512 28.7758 21.4 28.6638 21.32C28.5598 21.24 28.3718 21.2 28.0998 21.2C27.8118 21.2 27.4478 21.244 27.0078 21.332V24.236C27.0078 24.404 27.0198 24.516 27.0438 24.572C27.0678 24.628 27.1318 24.688 27.2358 24.752L27.8238 25.088L27.7758 25.988H24.2958L24.2358 24.848ZM34.3777 26.204C33.7457 26.204 33.0137 26.092 32.1817 25.868C32.2297 25.084 32.2817 24.504 32.3377 24.128L33.0217 23.996L33.7777 24.8C34.0417 24.88 34.3377 24.92 34.6657 24.92C34.8497 24.92 34.9937 24.908 35.0977 24.884C35.1217 24.82 35.1337 24.732 35.1337 24.62C35.1337 24.524 35.1097 24.444 35.0617 24.38C35.0217 24.316 34.9257 24.24 34.7737 24.152C34.6217 24.064 34.3577 23.928 33.9817 23.744C33.5097 23.496 33.1497 23.276 32.9017 23.084C32.6537 22.884 32.4737 22.68 32.3617 22.472C32.2577 22.264 32.2057 22.016 32.2057 21.728C32.2057 21.088 32.4417 20.58 32.9137 20.204C33.3937 19.828 34.0417 19.64 34.8577 19.64C35.1937 19.64 35.5457 19.68 35.9137 19.76C36.2897 19.832 36.6257 19.932 36.9217 20.06C36.9217 20.58 36.8857 21.16 36.8137 21.8L36.1897 21.896L35.3857 21.032C35.1777 20.968 34.8737 20.936 34.4737 20.936C34.4097 20.936 34.2817 20.944 34.0897 20.96C34.0657 21.008 34.0537 21.084 34.0537 21.188C34.0537 21.3 34.0857 21.4 34.1497 21.488C34.2137 21.568 34.3257 21.66 34.4857 21.764C34.6537 21.86 34.9177 22 35.2777 22.184C35.8057 22.44 36.2017 22.664 36.4657 22.856C36.7377 23.04 36.9257 23.228 37.0297 23.42C37.1417 23.612 37.1977 23.844 37.1977 24.116C37.1977 24.772 36.9457 25.284 36.4417 25.652C35.9457 26.02 35.2577 26.204 34.3777 26.204ZM40.1536 26.168C39.5136 26.168 39.0376 25.98 38.7256 25.604C38.4136 25.22 38.2576 24.644 38.2576 23.876V21.728C38.2576 21.552 38.2416 21.44 38.2096 21.392C38.1856 21.336 38.1176 21.276 38.0056 21.212L37.4656 20.924L37.5256 20.024C37.6376 20.008 37.7176 19.992 37.7656 19.976C37.8536 19.96 38.1656 19.904 38.7016 19.808C39.2456 19.712 39.6976 19.656 40.0576 19.64C40.1456 19.84 40.2136 20.072 40.2616 20.336V23.36C40.2616 23.712 40.2696 23.96 40.2856 24.104C40.3096 24.248 40.3736 24.36 40.4776 24.44C40.5896 24.512 40.7776 24.548 41.0416 24.548C41.4256 24.548 41.7976 24.48 42.1576 24.344V21.728C42.1576 21.552 42.1456 21.44 42.1216 21.392C42.0976 21.336 42.0336 21.276 41.9296 21.212L41.4016 20.924L41.4496 20.024C42.0976 19.904 42.6016 19.812 42.9616 19.748C43.3296 19.684 43.6656 19.648 43.9696 19.64C44.0576 19.84 44.1256 20.072 44.1736 20.336V24.272C44.1736 24.416 44.1856 24.516 44.2096 24.572C44.2336 24.628 44.2896 24.684 44.3776 24.74L44.8576 25.016L44.8216 25.76C44.4776 25.848 44.0816 25.928 43.6336 26C43.1856 26.064 42.7696 26.104 42.3856 26.12C42.3536 26.024 42.3176 25.904 42.2776 25.76C42.2696 25.696 42.2496 25.62 42.2176 25.532H42.1816C41.8536 25.724 41.5056 25.88 41.1376 26C40.7776 26.112 40.4496 26.168 40.1536 26.168ZM45.2121 24.896L46.0521 24.644V18.896C46.0521 18.72 46.0361 18.608 46.0041 18.56C45.9801 18.504 45.9121 18.444 45.8001 18.38L45.2721 18.104L45.3321 17.192C45.4921 17.16 45.6161 17.14 45.7041 17.132C46.7601 16.94 47.4961 16.836 47.9121 16.82C47.9921 17.004 48.0441 17.212 48.0681 17.444V24.248C48.0681 24.416 48.0801 24.528 48.1041 24.584C48.1281 24.64 48.1961 24.7 48.3081 24.764L48.8961 25.1L48.8481 26H45.2481L45.2121 24.896ZM51.8535 26.156C51.1495 26.156 50.6295 25.984 50.2935 25.64C49.9575 25.288 49.7895 24.756 49.7895 24.044V21.128H48.9495V20.252L51.1095 18.284L51.8055 18.368V19.724H53.8215V21.14H51.8055V23.612C51.8055 23.996 51.8575 24.252 51.9615 24.38C52.0735 24.508 52.2855 24.572 52.5975 24.572C52.8615 24.572 53.2295 24.536 53.7015 24.464L53.8455 25.688C53.5575 25.824 53.2335 25.936 52.8735 26.024C52.5215 26.112 52.1815 26.156 51.8535 26.156ZM54.9856 17.12L57.0256 16.58L57.5176 18.404L55.4896 18.956L54.9856 17.12ZM54.4816 24.896L55.3216 24.644V21.728C55.3216 21.552 55.3056 21.44 55.2736 21.392C55.2496 21.336 55.1816 21.276 55.0696 21.212L54.5416 20.924L54.6016 20.024C55.2656 19.896 55.7776 19.804 56.1376 19.748C56.5056 19.684 56.8416 19.648 57.1456 19.64C57.2496 19.984 57.3136 20.24 57.3376 20.408V24.248C57.3376 24.416 57.3496 24.528 57.3736 24.584C57.3976 24.64 57.4656 24.7 57.5776 24.764L58.1656 25.1L58.1176 26H54.5176L54.4816 24.896ZM58.6538 24.848L59.3978 24.632V21.728C59.3978 21.552 59.3858 21.44 59.3618 21.392C59.3378 21.336 59.2738 21.276 59.1698 21.212L58.6418 20.924L58.6778 20.024L58.9418 19.976C59.9898 19.768 60.7458 19.656 61.2098 19.64C61.2738 19.808 61.3258 19.992 61.3658 20.192C61.8538 19.968 62.2498 19.816 62.5538 19.736C62.8658 19.648 63.1578 19.604 63.4298 19.604C64.7018 19.604 65.3378 20.364 65.3378 21.884V24.236C65.3378 24.404 65.3498 24.516 65.3738 24.572C65.3978 24.628 65.4658 24.688 65.5778 24.752L66.1538 25.088L66.1058 25.988H62.7938L62.7338 24.848L63.3218 24.68V22.412C63.3218 22.052 63.3098 21.8 63.2858 21.656C63.2618 21.512 63.1938 21.4 63.0818 21.32C62.9778 21.24 62.7898 21.2 62.5178 21.2C62.2298 21.2 61.8658 21.244 61.4258 21.332V24.236C61.4258 24.404 61.4378 24.516 61.4618 24.572C61.4858 24.628 61.5498 24.688 61.6538 24.752L62.2418 25.088L62.1938 25.988H58.7138L58.6538 24.848ZM69.0477 28.736C68.1277 28.736 67.4317 28.592 66.9597 28.304C66.4957 28.016 66.2637 27.592 66.2637 27.032C66.2637 26.44 66.5357 25.92 67.0797 25.472C66.9117 25.304 66.8277 25.12 66.8277 24.92C66.8277 24.632 67.0157 24.224 67.3917 23.696C66.7357 23.352 66.4077 22.76 66.4077 21.92C66.4077 21.184 66.6557 20.616 67.1517 20.216C67.6557 19.808 68.3797 19.604 69.3237 19.604C69.9877 19.604 70.5317 19.704 70.9557 19.904L72.3957 19.46H72.9597V21.2H72.0237C72.0637 21.4 72.0837 21.596 72.0837 21.788C72.0837 22.524 71.8357 23.084 71.3397 23.468C70.8437 23.852 70.1157 24.044 69.1557 24.044C68.8277 24.044 68.5317 24.02 68.2677 23.972V24.14C68.2677 24.268 68.3197 24.36 68.4237 24.416C68.5357 24.464 68.7717 24.512 69.1317 24.56L70.2117 24.716C71.0597 24.836 71.6437 25.044 71.9637 25.34C72.2917 25.636 72.4557 26.016 72.4557 26.48C72.4557 27.2 72.1597 27.756 71.5677 28.148C70.9757 28.54 70.1357 28.736 69.0477 28.736ZM69.3357 22.868C69.5037 22.868 69.6957 22.844 69.9117 22.796C69.9437 22.7 69.9717 22.556 69.9957 22.364C70.0277 22.172 70.0437 21.996 70.0437 21.836C70.0437 21.476 69.9637 21.208 69.8037 21.032C69.6517 20.856 69.4117 20.768 69.0837 20.768C68.9237 20.768 68.7477 20.792 68.5557 20.84C68.5157 20.936 68.4797 21.076 68.4477 21.26C68.4237 21.444 68.4117 21.62 68.4117 21.788C68.4117 22.156 68.4877 22.428 68.6397 22.604C68.7917 22.78 69.0237 22.868 69.3357 22.868ZM69.5997 27.38C69.9677 27.38 70.2477 27.348 70.4397 27.284C70.4877 27.188 70.5117 27.06 70.5117 26.9C70.5117 26.708 70.4437 26.56 70.3077 26.456C70.1717 26.36 69.9277 26.288 69.5757 26.24L69.1917 26.18C68.8397 26.14 68.4837 26.084 68.1237 26.012C68.0757 26.228 68.0517 26.4 68.0517 26.528C68.0517 26.816 68.1797 27.028 68.4357 27.164C68.6917 27.308 69.0797 27.38 69.5997 27.38Z" fill="#BAA688"/>
</svg>
